<svg width="190" height="48" viewBox="0 0 190 48" fill="none" xmlns="http://www.w3.org/2000/svg">
<g clip-path="url(#clip0_136_60)">
<path d="M58 27.22V41H51V28.88C51 25.18 48.93 23.64 47 23.64C45.6755 23.6023 44.3901 24.092 43.4264 25.0013C42.4626 25.9107 41.8992 27.1655 41.86 28.49C41.85 28.6599 41.85 28.8301 41.86 29V41H35V18H41.6V21.25H41.69C42.38 19.84 45.33 17.5 49.35 17.5C53.37 17.5 58 20.22 58 27.22ZM24 41H31V18H24V41ZM27.5 6.45C26.7012 6.45986 25.9231 6.70575 25.2637 7.15672C24.6043 7.60769 24.093 8.24361 23.7941 8.98446C23.4952 9.72532 23.4221 10.538 23.584 11.3203C23.7459 12.1026 24.1355 12.8196 24.7038 13.381C25.2722 13.9424 25.9939 14.3232 26.7781 14.4755C27.5623 14.6277 28.3741 14.5446 29.1112 14.2367C29.8483 13.9287 30.4779 13.4097 30.9208 12.7448C31.3636 12.0799 31.5999 11.2989 31.6 10.5C31.6 9.43913 31.1786 8.42172 30.4284 7.67157C29.6783 6.92143 28.6609 6.5 27.6 6.5L27.5 6.45ZM190 3.5V44.5C190 45.4283 189.631 46.3185 188.975 46.9749C188.318 47.6312 187.428 48 186.5 48H145.5C144.572 48 143.682 47.6312 143.025 46.9749C142.369 46.3185 142 45.4283 142 44.5V3.5C142 2.57174 142.369 1.6815 143.025 1.02513C143.682 0.368749 144.572 0 145.5 0L186.5 0C187.428 0 188.318 0.368749 188.975 1.02513C189.631 1.6815 190 2.57174 190 3.5ZM156 18H149V41H156V18ZM156.6 10.5C156.61 9.68918 156.379 8.89366 155.937 8.21402C155.494 7.53438 154.861 7.00115 154.115 6.68176C153.37 6.36236 152.547 6.27115 151.749 6.41965C150.952 6.56815 150.217 6.94969 149.637 7.51603C149.056 8.08238 148.657 8.80808 148.489 9.60139C148.321 10.3947 148.392 11.22 148.693 11.9729C148.995 12.7258 149.512 13.3725 150.181 13.8312C150.85 14.2899 151.639 14.5401 152.45 14.55H152.5C153.025 14.5633 153.548 14.473 154.039 14.2841C154.529 14.0953 154.977 13.8117 155.358 13.4495C155.739 13.0873 156.044 12.6537 156.258 12.1733C156.471 11.693 156.587 11.1753 156.6 10.65V10.5ZM183 27.22C183 20.22 178.37 17.5 174.35 17.5C170.33 17.5 167.35 19.84 166.69 21.25H166.6V18H160V41H167V29C167 25.31 169.51 23.67 171.95 23.67C173.95 23.67 176 25.21 176 28.91V41H183V27.22ZM8 7H0V41H21V34H8V7ZM108 29.77V31.77H91C91.0123 31.9185 91.0495 32.0638 91.11 32.2C91.69 34.13 93.78 35.76 96.86 35.76C97.8315 35.8088 98.8012 35.632 99.6929 35.2433C100.585 34.8547 101.374 34.2649 102 33.52L107.1 36.7C105.858 38.2645 104.264 39.5144 102.448 40.3483C100.633 41.1823 98.6464 41.5768 96.65 41.5C89.94 41.5 84 37.42 84 29.59C84 21.76 90 17.5 96.44 17.5C102.88 17.5 108 21.81 108 29.77ZM101 27C101 24.6 99.44 22.62 96.25 22.62C93.25 22.62 91.16 24.62 91 27H101ZM85.26 18H76.68L69.14 27.37H69V7H62V41H69V30H69.14L76.86 41H85.63L76.2 28.43L85.26 18ZM128 7H135V41H128.4V38H128.31C127.43 39.52 125.07 41.49 120.91 41.49C115.91 41.49 110 37.86 110 29.49C110 21.96 115.1 17.54 120.82 17.54C122.145 17.5207 123.46 17.7774 124.681 18.2939C125.901 18.8104 127.001 19.5753 127.91 20.54H128V7ZM128.3 29.49C128.32 28.7361 128.191 27.9857 127.921 27.2817C127.651 26.5776 127.245 25.9337 126.725 25.3867C126.206 24.8397 125.584 24.4004 124.896 24.0938C124.207 23.7872 123.464 23.6194 122.71 23.6H122.56C121.092 23.5651 119.671 24.1142 118.608 25.1267C117.544 26.1392 116.927 27.5323 116.89 29C116.89 29.15 116.89 29.29 116.89 29.44C116.845 30.1754 116.946 30.9124 117.186 31.609C117.426 32.3055 117.801 32.9479 118.29 33.4995C118.778 34.0511 119.37 34.501 120.033 34.8237C120.695 35.1464 121.415 35.3354 122.15 35.38H122.55C124.093 35.3589 125.564 34.7271 126.642 33.6231C127.72 32.5191 128.316 31.0328 128.3 29.49Z" fill="#0A66C2"/>
</g>
<defs>
<clipPath id="clip0_136_60">
<rect width="190" height="48" fill="white"/>
</clipPath>
</defs>
</svg>
